%TF.GenerationSoftware,KiCad,Pcbnew,10.0.3*%
%TF.CreationDate,2026-05-30T07:40:14+05:30*%
%TF.ProjectId,Accelerometer_and_Gryoscope_Sensor_Module,41636365-6c65-4726-9f6d-657465725f61,rev?*%
%TF.SameCoordinates,Original*%
%TF.FileFunction,Copper,L2,Bot*%
%TF.FilePolarity,Positive*%
%FSLAX46Y46*%
G04 Gerber Fmt 4.6, Leading zero omitted, Abs format (unit mm)*
G04 Created by KiCad (PCBNEW 10.0.3) date 2026-05-30 07:40:14*
%MOMM*%
%LPD*%
G01*
G04 APERTURE LIST*
%TA.AperFunction,ComponentPad*%
%ADD10R,1.700000X1.700000*%
%TD*%
%TA.AperFunction,ComponentPad*%
%ADD11C,1.700000*%
%TD*%
%TA.AperFunction,ViaPad*%
%ADD12C,0.600000*%
%TD*%
%TA.AperFunction,Conductor*%
%ADD13C,0.200000*%
%TD*%
G04 APERTURE END LIST*
D10*
%TO.P,J1,1,Pin_1_1*%
%TO.N,VCC*%
X92000000Y-93000000D03*
D11*
%TO.P,J1,2,Pin_2_2*%
%TO.N,GND*%
X92000000Y-95540000D03*
%TO.P,J1,3,Pin_3_3*%
%TO.N,/SCL*%
X92000000Y-98080000D03*
%TO.P,J1,4,Pin_4_4*%
%TO.N,/SDA*%
X92000000Y-100620000D03*
%TO.P,J1,5,Pin_5_5*%
%TO.N,/XDA*%
X92000000Y-103160000D03*
%TO.P,J1,6,Pin_6_6*%
%TO.N,/XCL*%
X92000000Y-105700000D03*
%TO.P,J1,7,Pin_7_7*%
%TO.N,/AD0*%
X92000000Y-108240000D03*
%TO.P,J1,8,Pin_8_8*%
%TO.N,/INT*%
X92000000Y-110780000D03*
%TD*%
D12*
%TO.N,VCC*%
X102100000Y-103310100D03*
%TO.N,GND*%
X97885600Y-98633700D03*
%TO.N,/INT*%
X101279700Y-106527800D03*
%TD*%
%TO.N,VCC*%
D13*
X93151700Y-93000000D02*
X102100000Y-101948300D01*
X102100000Y-101948300D02*
X102100000Y-103310100D01*
X92000000Y-93000000D02*
X93151700Y-93000000D01*
%TO.N,GND*%
X92000000Y-95540000D02*
X94791900Y-95540000D01*
X94791900Y-95540000D02*
X97885600Y-98633700D01*
%TO.N,/INT*%
X96252200Y-106527800D02*
X101279700Y-106527800D01*
X92000000Y-110780000D02*
X96252200Y-106527800D01*
%TD*%
%TA.AperFunction,Conductor*%
%TO.N,GND*%
G36*
X110942539Y-88520185D02*
G01*
X110988294Y-88572989D01*
X110999500Y-88624500D01*
X110999500Y-114375500D01*
X110979815Y-114442539D01*
X110927011Y-114488294D01*
X110875500Y-114499500D01*
X90124500Y-114499500D01*
X90057461Y-114479815D01*
X90011706Y-114427011D01*
X90000500Y-114375500D01*
X90000500Y-92102135D01*
X90649500Y-92102135D01*
X90649500Y-93897870D01*
X90649501Y-93897876D01*
X90655908Y-93957483D01*
X90706202Y-94092328D01*
X90706206Y-94092335D01*
X90792452Y-94207544D01*
X90792455Y-94207547D01*
X90907664Y-94293793D01*
X90907671Y-94293797D01*
X90952618Y-94310561D01*
X91042517Y-94344091D01*
X91102127Y-94350500D01*
X91112685Y-94350499D01*
X91179723Y-94370179D01*
X91200372Y-94386818D01*
X91870591Y-95057037D01*
X91807007Y-95074075D01*
X91692993Y-95139901D01*
X91599901Y-95232993D01*
X91534075Y-95347007D01*
X91517037Y-95410591D01*
X90884728Y-94778282D01*
X90884727Y-94778282D01*
X90845380Y-94832439D01*
X90748904Y-95021782D01*
X90683242Y-95223869D01*
X90683242Y-95223872D01*
X90650000Y-95433753D01*
X90650000Y-95646246D01*
X90683242Y-95856127D01*
X90683242Y-95856130D01*
X90748904Y-96058217D01*
X90845375Y-96247550D01*
X90884728Y-96301716D01*
X91517037Y-95669408D01*
X91534075Y-95732993D01*
X91599901Y-95847007D01*
X91692993Y-95940099D01*
X91807007Y-96005925D01*
X91870590Y-96022962D01*
X91238282Y-96655269D01*
X91238282Y-96655270D01*
X91292452Y-96694626D01*
X91292451Y-96694626D01*
X91301495Y-96699234D01*
X91352292Y-96747208D01*
X91369087Y-96815029D01*
X91346550Y-96881164D01*
X91301499Y-96920202D01*
X91292182Y-96924949D01*
X91120213Y-97049890D01*
X90969890Y-97200213D01*
X90844951Y-97372179D01*
X90748444Y-97561585D01*
X90682753Y-97763760D01*
X90649500Y-97973713D01*
X90649500Y-98186286D01*
X90682753Y-98396239D01*
X90748444Y-98598414D01*
X90844951Y-98787820D01*
X90969890Y-98959786D01*
X91120213Y-99110109D01*
X91292182Y-99235050D01*
X91300946Y-99239516D01*
X91351742Y-99287491D01*
X91368536Y-99355312D01*
X91345998Y-99421447D01*
X91300946Y-99460484D01*
X91292182Y-99464949D01*
X91120213Y-99589890D01*
X90969890Y-99740213D01*
X90844951Y-99912179D01*
X90748444Y-100101585D01*
X90682753Y-100303760D01*
X90649500Y-100513713D01*
X90649500Y-100726286D01*
X90682753Y-100936239D01*
X90748444Y-101138414D01*
X90844951Y-101327820D01*
X90969890Y-101499786D01*
X91120213Y-101650109D01*
X91292182Y-101775050D01*
X91300946Y-101779516D01*
X91351742Y-101827491D01*
X91368536Y-101895312D01*
X91345998Y-101961447D01*
X91300946Y-102000484D01*
X91292182Y-102004949D01*
X91120213Y-102129890D01*
X90969890Y-102280213D01*
X90844951Y-102452179D01*
X90748444Y-102641585D01*
X90682753Y-102843760D01*
X90649500Y-103053713D01*
X90649500Y-103266286D01*
X90682753Y-103476239D01*
X90748444Y-103678414D01*
X90844951Y-103867820D01*
X90969890Y-104039786D01*
X91120213Y-104190109D01*
X91292182Y-104315050D01*
X91300946Y-104319516D01*
X91351742Y-104367491D01*
X91368536Y-104435312D01*
X91345998Y-104501447D01*
X91300946Y-104540484D01*
X91292182Y-104544949D01*
X91120213Y-104669890D01*
X90969890Y-104820213D01*
X90844951Y-104992179D01*
X90748444Y-105181585D01*
X90682753Y-105383760D01*
X90649500Y-105593713D01*
X90649500Y-105806287D01*
X90651420Y-105818409D01*
X90675148Y-105968225D01*
X90682754Y-106016243D01*
X90725768Y-106148627D01*
X90748444Y-106218414D01*
X90844951Y-106407820D01*
X90969890Y-106579786D01*
X91120213Y-106730109D01*
X91292182Y-106855050D01*
X91300946Y-106859516D01*
X91351742Y-106907491D01*
X91368536Y-106975312D01*
X91345998Y-107041447D01*
X91300946Y-107080484D01*
X91292182Y-107084949D01*
X91120213Y-107209890D01*
X90969890Y-107360213D01*
X90844951Y-107532179D01*
X90748444Y-107721585D01*
X90682753Y-107923760D01*
X90649500Y-108133713D01*
X90649500Y-108346287D01*
X90682754Y-108556243D01*
X90710321Y-108641086D01*
X90748444Y-108758414D01*
X90844951Y-108947820D01*
X90969890Y-109119786D01*
X91120213Y-109270109D01*
X91292182Y-109395050D01*
X91300946Y-109399516D01*
X91351742Y-109447491D01*
X91368536Y-109515312D01*
X91345998Y-109581447D01*
X91300946Y-109620484D01*
X91292182Y-109624949D01*
X91120213Y-109749890D01*
X90969890Y-109900213D01*
X90844951Y-110072179D01*
X90748444Y-110261585D01*
X90682753Y-110463760D01*
X90649500Y-110673713D01*
X90649500Y-110886287D01*
X90682754Y-111096243D01*
X90702745Y-111157770D01*
X90748444Y-111298414D01*
X90844951Y-111487820D01*
X90969890Y-111659786D01*
X91120213Y-111810109D01*
X91292179Y-111935048D01*
X91292181Y-111935049D01*
X91292184Y-111935051D01*
X91481588Y-112031557D01*
X91683757Y-112097246D01*
X91893713Y-112130500D01*
X91893714Y-112130500D01*
X92106286Y-112130500D01*
X92106287Y-112130500D01*
X92316243Y-112097246D01*
X92518412Y-112031557D01*
X92707816Y-111935051D01*
X92729789Y-111919086D01*
X92879786Y-111810109D01*
X92879788Y-111810106D01*
X92879792Y-111810104D01*
X93030104Y-111659792D01*
X93030106Y-111659788D01*
X93030109Y-111659786D01*
X93084899Y-111584371D01*
X93155051Y-111487816D01*
X93207307Y-111385258D01*
X106249500Y-111385258D01*
X106249500Y-111614741D01*
X106274446Y-111804215D01*
X106279452Y-111842238D01*
X106279453Y-111842240D01*
X106338842Y-112063887D01*
X106426650Y-112275876D01*
X106426657Y-112275890D01*
X106541392Y-112474617D01*
X106681081Y-112656661D01*
X106681089Y-112656670D01*
X106843330Y-112818911D01*
X106843338Y-112818918D01*
X107025382Y-112958607D01*
X107025385Y-112958608D01*
X107025388Y-112958611D01*
X107224112Y-113073344D01*
X107224117Y-113073346D01*
X107224123Y-113073349D01*
X107315480Y-113111190D01*
X107436113Y-113161158D01*
X107657762Y-113220548D01*
X107885266Y-113250500D01*
X107885273Y-113250500D01*
X108114727Y-113250500D01*
X108114734Y-113250500D01*
X108342238Y-113220548D01*
X108563887Y-113161158D01*
X108775888Y-113073344D01*
X108974612Y-112958611D01*
X109156661Y-112818919D01*
X109156665Y-112818914D01*
X109156670Y-112818911D01*
X109318911Y-112656670D01*
X109318914Y-112656665D01*
X109318919Y-112656661D01*
X109458611Y-112474612D01*
X109573344Y-112275888D01*
X109661158Y-112063887D01*
X109720548Y-111842238D01*
X109750500Y-111614734D01*
X109750500Y-111385266D01*
X109720548Y-111157762D01*
X109661158Y-110936113D01*
X109573344Y-110724112D01*
X109458611Y-110525388D01*
X109458608Y-110525385D01*
X109458607Y-110525382D01*
X109318918Y-110343338D01*
X109318911Y-110343330D01*
X109156670Y-110181089D01*
X109156661Y-110181081D01*
X108974617Y-110041392D01*
X108775890Y-109926657D01*
X108775876Y-109926650D01*
X108563887Y-109838842D01*
X108342238Y-109779452D01*
X108304215Y-109774446D01*
X108114741Y-109749500D01*
X108114734Y-109749500D01*
X107885266Y-109749500D01*
X107885258Y-109749500D01*
X107668715Y-109778009D01*
X107657762Y-109779452D01*
X107564076Y-109804554D01*
X107436112Y-109838842D01*
X107224123Y-109926650D01*
X107224109Y-109926657D01*
X107025382Y-110041392D01*
X106843338Y-110181081D01*
X106681081Y-110343338D01*
X106541392Y-110525382D01*
X106426657Y-110724109D01*
X106426650Y-110724123D01*
X106338842Y-110936112D01*
X106279453Y-111157759D01*
X106279451Y-111157770D01*
X106249500Y-111385258D01*
X93207307Y-111385258D01*
X93251557Y-111298412D01*
X93317246Y-111096243D01*
X93350500Y-110886287D01*
X93350500Y-110673713D01*
X93317246Y-110463757D01*
X93303506Y-110421473D01*
X93301512Y-110351635D01*
X93333755Y-110295478D01*
X96464616Y-107164619D01*
X96525939Y-107131134D01*
X96552297Y-107128300D01*
X100699934Y-107128300D01*
X100766973Y-107147985D01*
X100768825Y-107149198D01*
X100900514Y-107237190D01*
X100900527Y-107237197D01*
X101046198Y-107297535D01*
X101046203Y-107297537D01*
X101200853Y-107328299D01*
X101200856Y-107328300D01*
X101200858Y-107328300D01*
X101358544Y-107328300D01*
X101358545Y-107328299D01*
X101513197Y-107297537D01*
X101658879Y-107237194D01*
X101789989Y-107149589D01*
X101901489Y-107038089D01*
X101989094Y-106906979D01*
X102049437Y-106761297D01*
X102080200Y-106606642D01*
X102080200Y-106448958D01*
X102080200Y-106448955D01*
X102080199Y-106448953D01*
X102049438Y-106294310D01*
X102049437Y-106294303D01*
X101993428Y-106159084D01*
X101989097Y-106148627D01*
X101989090Y-106148614D01*
X101901489Y-106017511D01*
X101901486Y-106017507D01*
X101789992Y-105906013D01*
X101789988Y-105906010D01*
X101658885Y-105818409D01*
X101658872Y-105818402D01*
X101513201Y-105758064D01*
X101513189Y-105758061D01*
X101358545Y-105727300D01*
X101358542Y-105727300D01*
X101200858Y-105727300D01*
X101200855Y-105727300D01*
X101046210Y-105758061D01*
X101046198Y-105758064D01*
X100900527Y-105818402D01*
X100900514Y-105818409D01*
X100768825Y-105906402D01*
X100702147Y-105927280D01*
X100699934Y-105927300D01*
X96338869Y-105927300D01*
X96338853Y-105927299D01*
X96331257Y-105927299D01*
X96173143Y-105927299D01*
X96065787Y-105956065D01*
X96020410Y-105968224D01*
X96020409Y-105968225D01*
X95979519Y-105991834D01*
X95979517Y-105991835D01*
X95883490Y-106047275D01*
X95883482Y-106047281D01*
X93562181Y-108368583D01*
X93500858Y-108402068D01*
X93431166Y-108397084D01*
X93375233Y-108355212D01*
X93350816Y-108289748D01*
X93350500Y-108280902D01*
X93350500Y-108133713D01*
X93317246Y-107923760D01*
X93317246Y-107923757D01*
X93251557Y-107721588D01*
X93155051Y-107532184D01*
X93155049Y-107532181D01*
X93155048Y-107532179D01*
X93030109Y-107360213D01*
X92879786Y-107209890D01*
X92707820Y-107084951D01*
X92707115Y-107084591D01*
X92699054Y-107080485D01*
X92648259Y-107032512D01*
X92631463Y-106964692D01*
X92653999Y-106898556D01*
X92699054Y-106859515D01*
X92707816Y-106855051D01*
X92836853Y-106761301D01*
X92879786Y-106730109D01*
X92879788Y-106730106D01*
X92879792Y-106730104D01*
X93030104Y-106579792D01*
X93030106Y-106579788D01*
X93030109Y-106579786D01*
X93155048Y-106407820D01*
X93155047Y-106407820D01*
X93155051Y-106407816D01*
X93251557Y-106218412D01*
X93317246Y-106016243D01*
X93350500Y-105806287D01*
X93350500Y-105593713D01*
X93317246Y-105383757D01*
X93251557Y-105181588D01*
X93155051Y-104992184D01*
X93155049Y-104992181D01*
X93155048Y-104992179D01*
X93030109Y-104820213D01*
X92879786Y-104669890D01*
X92707820Y-104544951D01*
X92707115Y-104544591D01*
X92699054Y-104540485D01*
X92648259Y-104492512D01*
X92631463Y-104424692D01*
X92653999Y-104358556D01*
X92699054Y-104319515D01*
X92707816Y-104315051D01*
X92729789Y-104299086D01*
X92879786Y-104190109D01*
X92879788Y-104190106D01*
X92879792Y-104190104D01*
X93030104Y-104039792D01*
X93030106Y-104039788D01*
X93030109Y-104039786D01*
X93155048Y-103867820D01*
X93155047Y-103867820D01*
X93155051Y-103867816D01*
X93251557Y-103678412D01*
X93317246Y-103476243D01*
X93350500Y-103266287D01*
X93350500Y-103053713D01*
X93317246Y-102843757D01*
X93251557Y-102641588D01*
X93155051Y-102452184D01*
X93155049Y-102452181D01*
X93155048Y-102452179D01*
X93030109Y-102280213D01*
X92879786Y-102129890D01*
X92707820Y-102004951D01*
X92707115Y-102004591D01*
X92699054Y-102000485D01*
X92648259Y-101952512D01*
X92631463Y-101884692D01*
X92653999Y-101818556D01*
X92699054Y-101779515D01*
X92707816Y-101775051D01*
X92729789Y-101759086D01*
X92879786Y-101650109D01*
X92879792Y-101650104D01*
X92950312Y-101579584D01*
X93030104Y-101499792D01*
X93030106Y-101499788D01*
X93030109Y-101499786D01*
X93155048Y-101327820D01*
X93155047Y-101327820D01*
X93155051Y-101327816D01*
X93251557Y-101138412D01*
X93317246Y-100936243D01*
X93350500Y-100726287D01*
X93350500Y-100513713D01*
X93317246Y-100303757D01*
X93251557Y-100101588D01*
X93155051Y-99912184D01*
X93155049Y-99912181D01*
X93155048Y-99912179D01*
X93030109Y-99740213D01*
X92879786Y-99589890D01*
X92707820Y-99464951D01*
X92707115Y-99464591D01*
X92699054Y-99460485D01*
X92648259Y-99412512D01*
X92631463Y-99344692D01*
X92653999Y-99278556D01*
X92699054Y-99239515D01*
X92707816Y-99235051D01*
X92729789Y-99219086D01*
X92879786Y-99110109D01*
X92879788Y-99110106D01*
X92879792Y-99110104D01*
X93030104Y-98959792D01*
X93030106Y-98959788D01*
X93030109Y-98959786D01*
X93155048Y-98787820D01*
X93155047Y-98787820D01*
X93155051Y-98787816D01*
X93251557Y-98598412D01*
X93317246Y-98396243D01*
X93350500Y-98186287D01*
X93350500Y-97973713D01*
X93317246Y-97763757D01*
X93251557Y-97561588D01*
X93155051Y-97372184D01*
X93155049Y-97372181D01*
X93155048Y-97372179D01*
X93030109Y-97200213D01*
X92879786Y-97049890D01*
X92707817Y-96924949D01*
X92698504Y-96920204D01*
X92647707Y-96872230D01*
X92630912Y-96804409D01*
X92653449Y-96738274D01*
X92698507Y-96699232D01*
X92707555Y-96694622D01*
X92761716Y-96655270D01*
X92761717Y-96655270D01*
X92129408Y-96022962D01*
X92192993Y-96005925D01*
X92307007Y-95940099D01*
X92400099Y-95847007D01*
X92465925Y-95732993D01*
X92482962Y-95669408D01*
X93115270Y-96301717D01*
X93115270Y-96301716D01*
X93154622Y-96247554D01*
X93251095Y-96058217D01*
X93316757Y-95856130D01*
X93316757Y-95856127D01*
X93350000Y-95646246D01*
X93350000Y-95433753D01*
X93316757Y-95223872D01*
X93316757Y-95223869D01*
X93251095Y-95021782D01*
X93154624Y-94832449D01*
X93115270Y-94778282D01*
X93115269Y-94778282D01*
X92482962Y-95410590D01*
X92465925Y-95347007D01*
X92400099Y-95232993D01*
X92307007Y-95139901D01*
X92192993Y-95074075D01*
X92129409Y-95057037D01*
X92799627Y-94386818D01*
X92860950Y-94353333D01*
X92887307Y-94350499D01*
X92897872Y-94350499D01*
X92957483Y-94344091D01*
X93092331Y-94293796D01*
X93207546Y-94207546D01*
X93251278Y-94149127D01*
X93307210Y-94107258D01*
X93376901Y-94102274D01*
X93438224Y-94135759D01*
X101463181Y-102160716D01*
X101496666Y-102222039D01*
X101499500Y-102248397D01*
X101499500Y-102730334D01*
X101479815Y-102797373D01*
X101478602Y-102799225D01*
X101390609Y-102930914D01*
X101390602Y-102930927D01*
X101330264Y-103076598D01*
X101330261Y-103076610D01*
X101299500Y-103231253D01*
X101299500Y-103388946D01*
X101330261Y-103543589D01*
X101330264Y-103543601D01*
X101390602Y-103689272D01*
X101390609Y-103689285D01*
X101478210Y-103820388D01*
X101478213Y-103820392D01*
X101589707Y-103931886D01*
X101589711Y-103931889D01*
X101720814Y-104019490D01*
X101720827Y-104019497D01*
X101866498Y-104079835D01*
X101866503Y-104079837D01*
X102021153Y-104110599D01*
X102021156Y-104110600D01*
X102021158Y-104110600D01*
X102178844Y-104110600D01*
X102178845Y-104110599D01*
X102333497Y-104079837D01*
X102479179Y-104019494D01*
X102610289Y-103931889D01*
X102721789Y-103820389D01*
X102809394Y-103689279D01*
X102869737Y-103543597D01*
X102900500Y-103388942D01*
X102900500Y-103231258D01*
X102900500Y-103231255D01*
X102900499Y-103231253D01*
X102869738Y-103076610D01*
X102869737Y-103076603D01*
X102860256Y-103053713D01*
X102809397Y-102930927D01*
X102809390Y-102930914D01*
X102721398Y-102799225D01*
X102700520Y-102732547D01*
X102700500Y-102730334D01*
X102700500Y-101869244D01*
X102700499Y-101869238D01*
X102696532Y-101854433D01*
X102693403Y-101842754D01*
X102659577Y-101716515D01*
X102621234Y-101650104D01*
X102621234Y-101650102D01*
X102580524Y-101579590D01*
X102580521Y-101579586D01*
X102580520Y-101579584D01*
X102468716Y-101467780D01*
X102468715Y-101467779D01*
X102464385Y-101463449D01*
X102464374Y-101463439D01*
X93639290Y-92638355D01*
X93639288Y-92638352D01*
X93520417Y-92519481D01*
X93520416Y-92519480D01*
X93433604Y-92469360D01*
X93433604Y-92469359D01*
X93433599Y-92469357D01*
X93422047Y-92462687D01*
X93412495Y-92457172D01*
X93364281Y-92406602D01*
X93350499Y-92349787D01*
X93350499Y-92102129D01*
X93350498Y-92102123D01*
X93350497Y-92102116D01*
X93344091Y-92042517D01*
X93293796Y-91907669D01*
X93293795Y-91907668D01*
X93293793Y-91907664D01*
X93207547Y-91792455D01*
X93207544Y-91792452D01*
X93092335Y-91706206D01*
X93092328Y-91706202D01*
X92957482Y-91655908D01*
X92957483Y-91655908D01*
X92897883Y-91649501D01*
X92897881Y-91649500D01*
X92897873Y-91649500D01*
X92897864Y-91649500D01*
X91102129Y-91649500D01*
X91102123Y-91649501D01*
X91042516Y-91655908D01*
X90907671Y-91706202D01*
X90907664Y-91706206D01*
X90792455Y-91792452D01*
X90792452Y-91792455D01*
X90706206Y-91907664D01*
X90706202Y-91907671D01*
X90655908Y-92042517D01*
X90653611Y-92063887D01*
X90649501Y-92102123D01*
X90649500Y-92102135D01*
X90000500Y-92102135D01*
X90000500Y-91385258D01*
X106249500Y-91385258D01*
X106249500Y-91614741D01*
X106272897Y-91792452D01*
X106279452Y-91842238D01*
X106279453Y-91842240D01*
X106338842Y-92063887D01*
X106426650Y-92275876D01*
X106426657Y-92275890D01*
X106541392Y-92474617D01*
X106681081Y-92656661D01*
X106681089Y-92656670D01*
X106843330Y-92818911D01*
X106843338Y-92818918D01*
X107025382Y-92958607D01*
X107025385Y-92958608D01*
X107025388Y-92958611D01*
X107224112Y-93073344D01*
X107224117Y-93073346D01*
X107224123Y-93073349D01*
X107315480Y-93111190D01*
X107436113Y-93161158D01*
X107657762Y-93220548D01*
X107885266Y-93250500D01*
X107885273Y-93250500D01*
X108114727Y-93250500D01*
X108114734Y-93250500D01*
X108342238Y-93220548D01*
X108563887Y-93161158D01*
X108775888Y-93073344D01*
X108974612Y-92958611D01*
X109156661Y-92818919D01*
X109156665Y-92818914D01*
X109156670Y-92818911D01*
X109318911Y-92656670D01*
X109318914Y-92656665D01*
X109318919Y-92656661D01*
X109458611Y-92474612D01*
X109573344Y-92275888D01*
X109661158Y-92063887D01*
X109720548Y-91842238D01*
X109750500Y-91614734D01*
X109750500Y-91385266D01*
X109720548Y-91157762D01*
X109661158Y-90936113D01*
X109573344Y-90724112D01*
X109458611Y-90525388D01*
X109458608Y-90525385D01*
X109458607Y-90525382D01*
X109318918Y-90343338D01*
X109318911Y-90343330D01*
X109156670Y-90181089D01*
X109156661Y-90181081D01*
X108974617Y-90041392D01*
X108775890Y-89926657D01*
X108775876Y-89926650D01*
X108563887Y-89838842D01*
X108342238Y-89779452D01*
X108304215Y-89774446D01*
X108114741Y-89749500D01*
X108114734Y-89749500D01*
X107885266Y-89749500D01*
X107885258Y-89749500D01*
X107668715Y-89778009D01*
X107657762Y-89779452D01*
X107564076Y-89804554D01*
X107436112Y-89838842D01*
X107224123Y-89926650D01*
X107224109Y-89926657D01*
X107025382Y-90041392D01*
X106843338Y-90181081D01*
X106681081Y-90343338D01*
X106541392Y-90525382D01*
X106426657Y-90724109D01*
X106426650Y-90724123D01*
X106338842Y-90936112D01*
X106279453Y-91157759D01*
X106279451Y-91157770D01*
X106249500Y-91385258D01*
X90000500Y-91385258D01*
X90000500Y-88624500D01*
X90020185Y-88557461D01*
X90072989Y-88511706D01*
X90124500Y-88500500D01*
X110875500Y-88500500D01*
X110942539Y-88520185D01*
G37*
%TD.AperFunction*%
%TD*%
M02*
