%TF.GenerationSoftware,KiCad,Pcbnew,10.0.3*%
%TF.CreationDate,2026-05-30T07:40:14+05:30*%
%TF.ProjectId,Accelerometer_and_Gryoscope_Sensor_Module,41636365-6c65-4726-9f6d-657465725f61,rev?*%
%TF.SameCoordinates,Original*%
%TF.FileFunction,Paste,Top*%
%TF.FilePolarity,Positive*%
%FSLAX46Y46*%
G04 Gerber Fmt 4.6, Leading zero omitted, Abs format (unit mm)*
G04 Created by KiCad (PCBNEW 10.0.3) date 2026-05-30 07:40:14*
%MOMM*%
%LPD*%
G01*
G04 APERTURE LIST*
G04 Aperture macros list*
%AMRoundRect*
0 Rectangle with rounded corners*
0 $1 Rounding radius*
0 $2 $3 $4 $5 $6 $7 $8 $9 X,Y pos of 4 corners*
0 Add a 4 corners polygon primitive as box body*
4,1,4,$2,$3,$4,$5,$6,$7,$8,$9,$2,$3,0*
0 Add four circle primitives for the rounded corners*
1,1,$1+$1,$2,$3*
1,1,$1+$1,$4,$5*
1,1,$1+$1,$6,$7*
1,1,$1+$1,$8,$9*
0 Add four rect primitives between the rounded corners*
20,1,$1+$1,$2,$3,$4,$5,0*
20,1,$1+$1,$4,$5,$6,$7,0*
20,1,$1+$1,$6,$7,$8,$9,0*
20,1,$1+$1,$8,$9,$2,$3,0*%
G04 Aperture macros list end*
%ADD10RoundRect,0.250000X-0.262500X-0.450000X0.262500X-0.450000X0.262500X0.450000X-0.262500X0.450000X0*%
%ADD11RoundRect,0.250000X-0.250000X-0.475000X0.250000X-0.475000X0.250000X0.475000X-0.250000X0.475000X0*%
%ADD12RoundRect,0.250000X0.262500X0.450000X-0.262500X0.450000X-0.262500X-0.450000X0.262500X-0.450000X0*%
%ADD13RoundRect,0.150000X-0.512500X-0.150000X0.512500X-0.150000X0.512500X0.150000X-0.512500X0.150000X0*%
%ADD14RoundRect,0.075000X-0.350000X-0.075000X0.350000X-0.075000X0.350000X0.075000X-0.350000X0.075000X0*%
%ADD15RoundRect,0.075000X0.075000X-0.350000X0.075000X0.350000X-0.075000X0.350000X-0.075000X-0.350000X0*%
%ADD16RoundRect,0.250000X0.475000X-0.250000X0.475000X0.250000X-0.475000X0.250000X-0.475000X-0.250000X0*%
%ADD17RoundRect,0.243750X0.243750X0.456250X-0.243750X0.456250X-0.243750X-0.456250X0.243750X-0.456250X0*%
G04 APERTURE END LIST*
D10*
%TO.C,R1*%
X98087500Y-108000000D03*
X99912500Y-108000000D03*
%TD*%
D11*
%TO.C,C7*%
X102100000Y-96500000D03*
X104000000Y-96500000D03*
%TD*%
D12*
%TO.C,R3*%
X99912500Y-96500000D03*
X98087500Y-96500000D03*
%TD*%
D13*
%TO.C,U1*%
X98362500Y-89500000D03*
X98362500Y-90450000D03*
X98362500Y-91400000D03*
X100637500Y-91400000D03*
X100637500Y-89500000D03*
%TD*%
D14*
%TO.C,U2*%
X98050000Y-99750000D03*
X98050000Y-100250000D03*
X98050000Y-100750000D03*
X98050000Y-101250000D03*
X98050000Y-101750000D03*
X98050000Y-102250000D03*
D15*
X98750000Y-102950000D03*
X99250000Y-102950000D03*
X99750000Y-102950000D03*
X100250000Y-102950000D03*
X100750000Y-102950000D03*
X101250000Y-102950000D03*
D14*
X101950000Y-102250000D03*
X101950000Y-101750000D03*
X101950000Y-101250000D03*
X101950000Y-100750000D03*
X101950000Y-100250000D03*
X101950000Y-99750000D03*
D15*
X101250000Y-99050000D03*
X100750000Y-99050000D03*
X100250000Y-99050000D03*
X99750000Y-99050000D03*
X99250000Y-99050000D03*
X98750000Y-99050000D03*
%TD*%
D16*
%TO.C,C1*%
X103500000Y-91500000D03*
X103500000Y-89600000D03*
%TD*%
D12*
%TO.C,R2*%
X99912500Y-94000000D03*
X98087500Y-94000000D03*
%TD*%
D17*
%TO.C,D1*%
X99937500Y-110500000D03*
X98062500Y-110500000D03*
%TD*%
D11*
%TO.C,C3*%
X102050000Y-94000000D03*
X103950000Y-94000000D03*
%TD*%
%TO.C,C4*%
X102050000Y-108000000D03*
X103950000Y-108000000D03*
%TD*%
%TO.C,C5*%
X102100000Y-105500000D03*
X104000000Y-105500000D03*
%TD*%
D16*
%TO.C,C2*%
X105000000Y-102000000D03*
X105000000Y-100100000D03*
%TD*%
D11*
%TO.C,C6*%
X98050000Y-105500000D03*
X99950000Y-105500000D03*
%TD*%
M02*
