%TF.GenerationSoftware,KiCad,Pcbnew,10.0.3*%
%TF.CreationDate,2026-05-26T09:39:39+05:30*%
%TF.ProjectId,Keypad_4x4,4b657970-6164-45f3-9478-342e6b696361,rev?*%
%TF.SameCoordinates,Original*%
%TF.FileFunction,Legend,Top*%
%TF.FilePolarity,Positive*%
%FSLAX46Y46*%
G04 Gerber Fmt 4.6, Leading zero omitted, Abs format (unit mm)*
G04 Created by KiCad (PCBNEW 10.0.3) date 2026-05-26 09:39:39*
%MOMM*%
%LPD*%
G01*
G04 APERTURE LIST*
%ADD10C,0.200000*%
%ADD11C,0.150000*%
%ADD12C,0.120000*%
G04 APERTURE END LIST*
D10*
X95941101Y-123867219D02*
X95607768Y-123391028D01*
X95369673Y-123867219D02*
X95369673Y-122867219D01*
X95369673Y-122867219D02*
X95750625Y-122867219D01*
X95750625Y-122867219D02*
X95845863Y-122914838D01*
X95845863Y-122914838D02*
X95893482Y-122962457D01*
X95893482Y-122962457D02*
X95941101Y-123057695D01*
X95941101Y-123057695D02*
X95941101Y-123200552D01*
X95941101Y-123200552D02*
X95893482Y-123295790D01*
X95893482Y-123295790D02*
X95845863Y-123343409D01*
X95845863Y-123343409D02*
X95750625Y-123391028D01*
X95750625Y-123391028D02*
X95369673Y-123391028D01*
X96274435Y-122867219D02*
X96893482Y-122867219D01*
X96893482Y-122867219D02*
X96560149Y-123248171D01*
X96560149Y-123248171D02*
X96703006Y-123248171D01*
X96703006Y-123248171D02*
X96798244Y-123295790D01*
X96798244Y-123295790D02*
X96845863Y-123343409D01*
X96845863Y-123343409D02*
X96893482Y-123438647D01*
X96893482Y-123438647D02*
X96893482Y-123676742D01*
X96893482Y-123676742D02*
X96845863Y-123771980D01*
X96845863Y-123771980D02*
X96798244Y-123819600D01*
X96798244Y-123819600D02*
X96703006Y-123867219D01*
X96703006Y-123867219D02*
X96417292Y-123867219D01*
X96417292Y-123867219D02*
X96322054Y-123819600D01*
X96322054Y-123819600D02*
X96274435Y-123771980D01*
X95941101Y-113771980D02*
X95893482Y-113819600D01*
X95893482Y-113819600D02*
X95750625Y-113867219D01*
X95750625Y-113867219D02*
X95655387Y-113867219D01*
X95655387Y-113867219D02*
X95512530Y-113819600D01*
X95512530Y-113819600D02*
X95417292Y-113724361D01*
X95417292Y-113724361D02*
X95369673Y-113629123D01*
X95369673Y-113629123D02*
X95322054Y-113438647D01*
X95322054Y-113438647D02*
X95322054Y-113295790D01*
X95322054Y-113295790D02*
X95369673Y-113105314D01*
X95369673Y-113105314D02*
X95417292Y-113010076D01*
X95417292Y-113010076D02*
X95512530Y-112914838D01*
X95512530Y-112914838D02*
X95655387Y-112867219D01*
X95655387Y-112867219D02*
X95750625Y-112867219D01*
X95750625Y-112867219D02*
X95893482Y-112914838D01*
X95893482Y-112914838D02*
X95941101Y-112962457D01*
X96322054Y-112962457D02*
X96369673Y-112914838D01*
X96369673Y-112914838D02*
X96464911Y-112867219D01*
X96464911Y-112867219D02*
X96703006Y-112867219D01*
X96703006Y-112867219D02*
X96798244Y-112914838D01*
X96798244Y-112914838D02*
X96845863Y-112962457D01*
X96845863Y-112962457D02*
X96893482Y-113057695D01*
X96893482Y-113057695D02*
X96893482Y-113152933D01*
X96893482Y-113152933D02*
X96845863Y-113295790D01*
X96845863Y-113295790D02*
X96274435Y-113867219D01*
X96274435Y-113867219D02*
X96893482Y-113867219D01*
X95941101Y-111271980D02*
X95893482Y-111319600D01*
X95893482Y-111319600D02*
X95750625Y-111367219D01*
X95750625Y-111367219D02*
X95655387Y-111367219D01*
X95655387Y-111367219D02*
X95512530Y-111319600D01*
X95512530Y-111319600D02*
X95417292Y-111224361D01*
X95417292Y-111224361D02*
X95369673Y-111129123D01*
X95369673Y-111129123D02*
X95322054Y-110938647D01*
X95322054Y-110938647D02*
X95322054Y-110795790D01*
X95322054Y-110795790D02*
X95369673Y-110605314D01*
X95369673Y-110605314D02*
X95417292Y-110510076D01*
X95417292Y-110510076D02*
X95512530Y-110414838D01*
X95512530Y-110414838D02*
X95655387Y-110367219D01*
X95655387Y-110367219D02*
X95750625Y-110367219D01*
X95750625Y-110367219D02*
X95893482Y-110414838D01*
X95893482Y-110414838D02*
X95941101Y-110462457D01*
X96274435Y-110367219D02*
X96893482Y-110367219D01*
X96893482Y-110367219D02*
X96560149Y-110748171D01*
X96560149Y-110748171D02*
X96703006Y-110748171D01*
X96703006Y-110748171D02*
X96798244Y-110795790D01*
X96798244Y-110795790D02*
X96845863Y-110843409D01*
X96845863Y-110843409D02*
X96893482Y-110938647D01*
X96893482Y-110938647D02*
X96893482Y-111176742D01*
X96893482Y-111176742D02*
X96845863Y-111271980D01*
X96845863Y-111271980D02*
X96798244Y-111319600D01*
X96798244Y-111319600D02*
X96703006Y-111367219D01*
X96703006Y-111367219D02*
X96417292Y-111367219D01*
X96417292Y-111367219D02*
X96322054Y-111319600D01*
X96322054Y-111319600D02*
X96274435Y-111271980D01*
X95941101Y-121367219D02*
X95607768Y-120891028D01*
X95369673Y-121367219D02*
X95369673Y-120367219D01*
X95369673Y-120367219D02*
X95750625Y-120367219D01*
X95750625Y-120367219D02*
X95845863Y-120414838D01*
X95845863Y-120414838D02*
X95893482Y-120462457D01*
X95893482Y-120462457D02*
X95941101Y-120557695D01*
X95941101Y-120557695D02*
X95941101Y-120700552D01*
X95941101Y-120700552D02*
X95893482Y-120795790D01*
X95893482Y-120795790D02*
X95845863Y-120843409D01*
X95845863Y-120843409D02*
X95750625Y-120891028D01*
X95750625Y-120891028D02*
X95369673Y-120891028D01*
X96322054Y-120462457D02*
X96369673Y-120414838D01*
X96369673Y-120414838D02*
X96464911Y-120367219D01*
X96464911Y-120367219D02*
X96703006Y-120367219D01*
X96703006Y-120367219D02*
X96798244Y-120414838D01*
X96798244Y-120414838D02*
X96845863Y-120462457D01*
X96845863Y-120462457D02*
X96893482Y-120557695D01*
X96893482Y-120557695D02*
X96893482Y-120652933D01*
X96893482Y-120652933D02*
X96845863Y-120795790D01*
X96845863Y-120795790D02*
X96274435Y-121367219D01*
X96274435Y-121367219D02*
X96893482Y-121367219D01*
X95941101Y-116271980D02*
X95893482Y-116319600D01*
X95893482Y-116319600D02*
X95750625Y-116367219D01*
X95750625Y-116367219D02*
X95655387Y-116367219D01*
X95655387Y-116367219D02*
X95512530Y-116319600D01*
X95512530Y-116319600D02*
X95417292Y-116224361D01*
X95417292Y-116224361D02*
X95369673Y-116129123D01*
X95369673Y-116129123D02*
X95322054Y-115938647D01*
X95322054Y-115938647D02*
X95322054Y-115795790D01*
X95322054Y-115795790D02*
X95369673Y-115605314D01*
X95369673Y-115605314D02*
X95417292Y-115510076D01*
X95417292Y-115510076D02*
X95512530Y-115414838D01*
X95512530Y-115414838D02*
X95655387Y-115367219D01*
X95655387Y-115367219D02*
X95750625Y-115367219D01*
X95750625Y-115367219D02*
X95893482Y-115414838D01*
X95893482Y-115414838D02*
X95941101Y-115462457D01*
X96893482Y-116367219D02*
X96322054Y-116367219D01*
X96607768Y-116367219D02*
X96607768Y-115367219D01*
X96607768Y-115367219D02*
X96512530Y-115510076D01*
X96512530Y-115510076D02*
X96417292Y-115605314D01*
X96417292Y-115605314D02*
X96322054Y-115652933D01*
X95941101Y-118867219D02*
X95607768Y-118391028D01*
X95369673Y-118867219D02*
X95369673Y-117867219D01*
X95369673Y-117867219D02*
X95750625Y-117867219D01*
X95750625Y-117867219D02*
X95845863Y-117914838D01*
X95845863Y-117914838D02*
X95893482Y-117962457D01*
X95893482Y-117962457D02*
X95941101Y-118057695D01*
X95941101Y-118057695D02*
X95941101Y-118200552D01*
X95941101Y-118200552D02*
X95893482Y-118295790D01*
X95893482Y-118295790D02*
X95845863Y-118343409D01*
X95845863Y-118343409D02*
X95750625Y-118391028D01*
X95750625Y-118391028D02*
X95369673Y-118391028D01*
X96893482Y-118867219D02*
X96322054Y-118867219D01*
X96607768Y-118867219D02*
X96607768Y-117867219D01*
X96607768Y-117867219D02*
X96512530Y-118010076D01*
X96512530Y-118010076D02*
X96417292Y-118105314D01*
X96417292Y-118105314D02*
X96322054Y-118152933D01*
X95941101Y-126367219D02*
X95607768Y-125891028D01*
X95369673Y-126367219D02*
X95369673Y-125367219D01*
X95369673Y-125367219D02*
X95750625Y-125367219D01*
X95750625Y-125367219D02*
X95845863Y-125414838D01*
X95845863Y-125414838D02*
X95893482Y-125462457D01*
X95893482Y-125462457D02*
X95941101Y-125557695D01*
X95941101Y-125557695D02*
X95941101Y-125700552D01*
X95941101Y-125700552D02*
X95893482Y-125795790D01*
X95893482Y-125795790D02*
X95845863Y-125843409D01*
X95845863Y-125843409D02*
X95750625Y-125891028D01*
X95750625Y-125891028D02*
X95369673Y-125891028D01*
X96798244Y-125700552D02*
X96798244Y-126367219D01*
X96560149Y-125319600D02*
X96322054Y-126033885D01*
X96322054Y-126033885D02*
X96941101Y-126033885D01*
X95941101Y-108771980D02*
X95893482Y-108819600D01*
X95893482Y-108819600D02*
X95750625Y-108867219D01*
X95750625Y-108867219D02*
X95655387Y-108867219D01*
X95655387Y-108867219D02*
X95512530Y-108819600D01*
X95512530Y-108819600D02*
X95417292Y-108724361D01*
X95417292Y-108724361D02*
X95369673Y-108629123D01*
X95369673Y-108629123D02*
X95322054Y-108438647D01*
X95322054Y-108438647D02*
X95322054Y-108295790D01*
X95322054Y-108295790D02*
X95369673Y-108105314D01*
X95369673Y-108105314D02*
X95417292Y-108010076D01*
X95417292Y-108010076D02*
X95512530Y-107914838D01*
X95512530Y-107914838D02*
X95655387Y-107867219D01*
X95655387Y-107867219D02*
X95750625Y-107867219D01*
X95750625Y-107867219D02*
X95893482Y-107914838D01*
X95893482Y-107914838D02*
X95941101Y-107962457D01*
X96798244Y-108200552D02*
X96798244Y-108867219D01*
X96560149Y-107819600D02*
X96322054Y-108533885D01*
X96322054Y-108533885D02*
X96941101Y-108533885D01*
D11*
X92166666Y-127934819D02*
X92166666Y-128649104D01*
X92166666Y-128649104D02*
X92119047Y-128791961D01*
X92119047Y-128791961D02*
X92023809Y-128887200D01*
X92023809Y-128887200D02*
X91880952Y-128934819D01*
X91880952Y-128934819D02*
X91785714Y-128934819D01*
X93166666Y-128934819D02*
X92595238Y-128934819D01*
X92880952Y-128934819D02*
X92880952Y-127934819D01*
X92880952Y-127934819D02*
X92785714Y-128077676D01*
X92785714Y-128077676D02*
X92690476Y-128172914D01*
X92690476Y-128172914D02*
X92595238Y-128220533D01*
X112011905Y-118407200D02*
X112154762Y-118454819D01*
X112154762Y-118454819D02*
X112392857Y-118454819D01*
X112392857Y-118454819D02*
X112488095Y-118407200D01*
X112488095Y-118407200D02*
X112535714Y-118359580D01*
X112535714Y-118359580D02*
X112583333Y-118264342D01*
X112583333Y-118264342D02*
X112583333Y-118169104D01*
X112583333Y-118169104D02*
X112535714Y-118073866D01*
X112535714Y-118073866D02*
X112488095Y-118026247D01*
X112488095Y-118026247D02*
X112392857Y-117978628D01*
X112392857Y-117978628D02*
X112202381Y-117931009D01*
X112202381Y-117931009D02*
X112107143Y-117883390D01*
X112107143Y-117883390D02*
X112059524Y-117835771D01*
X112059524Y-117835771D02*
X112011905Y-117740533D01*
X112011905Y-117740533D02*
X112011905Y-117645295D01*
X112011905Y-117645295D02*
X112059524Y-117550057D01*
X112059524Y-117550057D02*
X112107143Y-117502438D01*
X112107143Y-117502438D02*
X112202381Y-117454819D01*
X112202381Y-117454819D02*
X112440476Y-117454819D01*
X112440476Y-117454819D02*
X112583333Y-117502438D01*
X113535714Y-118454819D02*
X112964286Y-118454819D01*
X113250000Y-118454819D02*
X113250000Y-117454819D01*
X113250000Y-117454819D02*
X113154762Y-117597676D01*
X113154762Y-117597676D02*
X113059524Y-117692914D01*
X113059524Y-117692914D02*
X112964286Y-117740533D01*
X114154762Y-117454819D02*
X114250000Y-117454819D01*
X114250000Y-117454819D02*
X114345238Y-117502438D01*
X114345238Y-117502438D02*
X114392857Y-117550057D01*
X114392857Y-117550057D02*
X114440476Y-117645295D01*
X114440476Y-117645295D02*
X114488095Y-117835771D01*
X114488095Y-117835771D02*
X114488095Y-118073866D01*
X114488095Y-118073866D02*
X114440476Y-118264342D01*
X114440476Y-118264342D02*
X114392857Y-118359580D01*
X114392857Y-118359580D02*
X114345238Y-118407200D01*
X114345238Y-118407200D02*
X114250000Y-118454819D01*
X114250000Y-118454819D02*
X114154762Y-118454819D01*
X114154762Y-118454819D02*
X114059524Y-118407200D01*
X114059524Y-118407200D02*
X114011905Y-118359580D01*
X114011905Y-118359580D02*
X113964286Y-118264342D01*
X113964286Y-118264342D02*
X113916667Y-118073866D01*
X113916667Y-118073866D02*
X113916667Y-117835771D01*
X113916667Y-117835771D02*
X113964286Y-117645295D01*
X113964286Y-117645295D02*
X114011905Y-117550057D01*
X114011905Y-117550057D02*
X114059524Y-117502438D01*
X114059524Y-117502438D02*
X114154762Y-117454819D01*
X112488095Y-108407200D02*
X112630952Y-108454819D01*
X112630952Y-108454819D02*
X112869047Y-108454819D01*
X112869047Y-108454819D02*
X112964285Y-108407200D01*
X112964285Y-108407200D02*
X113011904Y-108359580D01*
X113011904Y-108359580D02*
X113059523Y-108264342D01*
X113059523Y-108264342D02*
X113059523Y-108169104D01*
X113059523Y-108169104D02*
X113011904Y-108073866D01*
X113011904Y-108073866D02*
X112964285Y-108026247D01*
X112964285Y-108026247D02*
X112869047Y-107978628D01*
X112869047Y-107978628D02*
X112678571Y-107931009D01*
X112678571Y-107931009D02*
X112583333Y-107883390D01*
X112583333Y-107883390D02*
X112535714Y-107835771D01*
X112535714Y-107835771D02*
X112488095Y-107740533D01*
X112488095Y-107740533D02*
X112488095Y-107645295D01*
X112488095Y-107645295D02*
X112535714Y-107550057D01*
X112535714Y-107550057D02*
X112583333Y-107502438D01*
X112583333Y-107502438D02*
X112678571Y-107454819D01*
X112678571Y-107454819D02*
X112916666Y-107454819D01*
X112916666Y-107454819D02*
X113059523Y-107502438D01*
X113916666Y-107454819D02*
X113726190Y-107454819D01*
X113726190Y-107454819D02*
X113630952Y-107502438D01*
X113630952Y-107502438D02*
X113583333Y-107550057D01*
X113583333Y-107550057D02*
X113488095Y-107692914D01*
X113488095Y-107692914D02*
X113440476Y-107883390D01*
X113440476Y-107883390D02*
X113440476Y-108264342D01*
X113440476Y-108264342D02*
X113488095Y-108359580D01*
X113488095Y-108359580D02*
X113535714Y-108407200D01*
X113535714Y-108407200D02*
X113630952Y-108454819D01*
X113630952Y-108454819D02*
X113821428Y-108454819D01*
X113821428Y-108454819D02*
X113916666Y-108407200D01*
X113916666Y-108407200D02*
X113964285Y-108359580D01*
X113964285Y-108359580D02*
X114011904Y-108264342D01*
X114011904Y-108264342D02*
X114011904Y-108026247D01*
X114011904Y-108026247D02*
X113964285Y-107931009D01*
X113964285Y-107931009D02*
X113916666Y-107883390D01*
X113916666Y-107883390D02*
X113821428Y-107835771D01*
X113821428Y-107835771D02*
X113630952Y-107835771D01*
X113630952Y-107835771D02*
X113535714Y-107883390D01*
X113535714Y-107883390D02*
X113488095Y-107931009D01*
X113488095Y-107931009D02*
X113440476Y-108026247D01*
X102488095Y-108407200D02*
X102630952Y-108454819D01*
X102630952Y-108454819D02*
X102869047Y-108454819D01*
X102869047Y-108454819D02*
X102964285Y-108407200D01*
X102964285Y-108407200D02*
X103011904Y-108359580D01*
X103011904Y-108359580D02*
X103059523Y-108264342D01*
X103059523Y-108264342D02*
X103059523Y-108169104D01*
X103059523Y-108169104D02*
X103011904Y-108073866D01*
X103011904Y-108073866D02*
X102964285Y-108026247D01*
X102964285Y-108026247D02*
X102869047Y-107978628D01*
X102869047Y-107978628D02*
X102678571Y-107931009D01*
X102678571Y-107931009D02*
X102583333Y-107883390D01*
X102583333Y-107883390D02*
X102535714Y-107835771D01*
X102535714Y-107835771D02*
X102488095Y-107740533D01*
X102488095Y-107740533D02*
X102488095Y-107645295D01*
X102488095Y-107645295D02*
X102535714Y-107550057D01*
X102535714Y-107550057D02*
X102583333Y-107502438D01*
X102583333Y-107502438D02*
X102678571Y-107454819D01*
X102678571Y-107454819D02*
X102916666Y-107454819D01*
X102916666Y-107454819D02*
X103059523Y-107502438D01*
X103964285Y-107454819D02*
X103488095Y-107454819D01*
X103488095Y-107454819D02*
X103440476Y-107931009D01*
X103440476Y-107931009D02*
X103488095Y-107883390D01*
X103488095Y-107883390D02*
X103583333Y-107835771D01*
X103583333Y-107835771D02*
X103821428Y-107835771D01*
X103821428Y-107835771D02*
X103916666Y-107883390D01*
X103916666Y-107883390D02*
X103964285Y-107931009D01*
X103964285Y-107931009D02*
X104011904Y-108026247D01*
X104011904Y-108026247D02*
X104011904Y-108264342D01*
X104011904Y-108264342D02*
X103964285Y-108359580D01*
X103964285Y-108359580D02*
X103916666Y-108407200D01*
X103916666Y-108407200D02*
X103821428Y-108454819D01*
X103821428Y-108454819D02*
X103583333Y-108454819D01*
X103583333Y-108454819D02*
X103488095Y-108407200D01*
X103488095Y-108407200D02*
X103440476Y-108359580D01*
X132011905Y-128407200D02*
X132154762Y-128454819D01*
X132154762Y-128454819D02*
X132392857Y-128454819D01*
X132392857Y-128454819D02*
X132488095Y-128407200D01*
X132488095Y-128407200D02*
X132535714Y-128359580D01*
X132535714Y-128359580D02*
X132583333Y-128264342D01*
X132583333Y-128264342D02*
X132583333Y-128169104D01*
X132583333Y-128169104D02*
X132535714Y-128073866D01*
X132535714Y-128073866D02*
X132488095Y-128026247D01*
X132488095Y-128026247D02*
X132392857Y-127978628D01*
X132392857Y-127978628D02*
X132202381Y-127931009D01*
X132202381Y-127931009D02*
X132107143Y-127883390D01*
X132107143Y-127883390D02*
X132059524Y-127835771D01*
X132059524Y-127835771D02*
X132011905Y-127740533D01*
X132011905Y-127740533D02*
X132011905Y-127645295D01*
X132011905Y-127645295D02*
X132059524Y-127550057D01*
X132059524Y-127550057D02*
X132107143Y-127502438D01*
X132107143Y-127502438D02*
X132202381Y-127454819D01*
X132202381Y-127454819D02*
X132440476Y-127454819D01*
X132440476Y-127454819D02*
X132583333Y-127502438D01*
X133535714Y-128454819D02*
X132964286Y-128454819D01*
X133250000Y-128454819D02*
X133250000Y-127454819D01*
X133250000Y-127454819D02*
X133154762Y-127597676D01*
X133154762Y-127597676D02*
X133059524Y-127692914D01*
X133059524Y-127692914D02*
X132964286Y-127740533D01*
X134392857Y-127454819D02*
X134202381Y-127454819D01*
X134202381Y-127454819D02*
X134107143Y-127502438D01*
X134107143Y-127502438D02*
X134059524Y-127550057D01*
X134059524Y-127550057D02*
X133964286Y-127692914D01*
X133964286Y-127692914D02*
X133916667Y-127883390D01*
X133916667Y-127883390D02*
X133916667Y-128264342D01*
X133916667Y-128264342D02*
X133964286Y-128359580D01*
X133964286Y-128359580D02*
X134011905Y-128407200D01*
X134011905Y-128407200D02*
X134107143Y-128454819D01*
X134107143Y-128454819D02*
X134297619Y-128454819D01*
X134297619Y-128454819D02*
X134392857Y-128407200D01*
X134392857Y-128407200D02*
X134440476Y-128359580D01*
X134440476Y-128359580D02*
X134488095Y-128264342D01*
X134488095Y-128264342D02*
X134488095Y-128026247D01*
X134488095Y-128026247D02*
X134440476Y-127931009D01*
X134440476Y-127931009D02*
X134392857Y-127883390D01*
X134392857Y-127883390D02*
X134297619Y-127835771D01*
X134297619Y-127835771D02*
X134107143Y-127835771D01*
X134107143Y-127835771D02*
X134011905Y-127883390D01*
X134011905Y-127883390D02*
X133964286Y-127931009D01*
X133964286Y-127931009D02*
X133916667Y-128026247D01*
X122011905Y-128407200D02*
X122154762Y-128454819D01*
X122154762Y-128454819D02*
X122392857Y-128454819D01*
X122392857Y-128454819D02*
X122488095Y-128407200D01*
X122488095Y-128407200D02*
X122535714Y-128359580D01*
X122535714Y-128359580D02*
X122583333Y-128264342D01*
X122583333Y-128264342D02*
X122583333Y-128169104D01*
X122583333Y-128169104D02*
X122535714Y-128073866D01*
X122535714Y-128073866D02*
X122488095Y-128026247D01*
X122488095Y-128026247D02*
X122392857Y-127978628D01*
X122392857Y-127978628D02*
X122202381Y-127931009D01*
X122202381Y-127931009D02*
X122107143Y-127883390D01*
X122107143Y-127883390D02*
X122059524Y-127835771D01*
X122059524Y-127835771D02*
X122011905Y-127740533D01*
X122011905Y-127740533D02*
X122011905Y-127645295D01*
X122011905Y-127645295D02*
X122059524Y-127550057D01*
X122059524Y-127550057D02*
X122107143Y-127502438D01*
X122107143Y-127502438D02*
X122202381Y-127454819D01*
X122202381Y-127454819D02*
X122440476Y-127454819D01*
X122440476Y-127454819D02*
X122583333Y-127502438D01*
X123535714Y-128454819D02*
X122964286Y-128454819D01*
X123250000Y-128454819D02*
X123250000Y-127454819D01*
X123250000Y-127454819D02*
X123154762Y-127597676D01*
X123154762Y-127597676D02*
X123059524Y-127692914D01*
X123059524Y-127692914D02*
X122964286Y-127740533D01*
X124440476Y-127454819D02*
X123964286Y-127454819D01*
X123964286Y-127454819D02*
X123916667Y-127931009D01*
X123916667Y-127931009D02*
X123964286Y-127883390D01*
X123964286Y-127883390D02*
X124059524Y-127835771D01*
X124059524Y-127835771D02*
X124297619Y-127835771D01*
X124297619Y-127835771D02*
X124392857Y-127883390D01*
X124392857Y-127883390D02*
X124440476Y-127931009D01*
X124440476Y-127931009D02*
X124488095Y-128026247D01*
X124488095Y-128026247D02*
X124488095Y-128264342D01*
X124488095Y-128264342D02*
X124440476Y-128359580D01*
X124440476Y-128359580D02*
X124392857Y-128407200D01*
X124392857Y-128407200D02*
X124297619Y-128454819D01*
X124297619Y-128454819D02*
X124059524Y-128454819D01*
X124059524Y-128454819D02*
X123964286Y-128407200D01*
X123964286Y-128407200D02*
X123916667Y-128359580D01*
X112011905Y-128407200D02*
X112154762Y-128454819D01*
X112154762Y-128454819D02*
X112392857Y-128454819D01*
X112392857Y-128454819D02*
X112488095Y-128407200D01*
X112488095Y-128407200D02*
X112535714Y-128359580D01*
X112535714Y-128359580D02*
X112583333Y-128264342D01*
X112583333Y-128264342D02*
X112583333Y-128169104D01*
X112583333Y-128169104D02*
X112535714Y-128073866D01*
X112535714Y-128073866D02*
X112488095Y-128026247D01*
X112488095Y-128026247D02*
X112392857Y-127978628D01*
X112392857Y-127978628D02*
X112202381Y-127931009D01*
X112202381Y-127931009D02*
X112107143Y-127883390D01*
X112107143Y-127883390D02*
X112059524Y-127835771D01*
X112059524Y-127835771D02*
X112011905Y-127740533D01*
X112011905Y-127740533D02*
X112011905Y-127645295D01*
X112011905Y-127645295D02*
X112059524Y-127550057D01*
X112059524Y-127550057D02*
X112107143Y-127502438D01*
X112107143Y-127502438D02*
X112202381Y-127454819D01*
X112202381Y-127454819D02*
X112440476Y-127454819D01*
X112440476Y-127454819D02*
X112583333Y-127502438D01*
X113535714Y-128454819D02*
X112964286Y-128454819D01*
X113250000Y-128454819D02*
X113250000Y-127454819D01*
X113250000Y-127454819D02*
X113154762Y-127597676D01*
X113154762Y-127597676D02*
X113059524Y-127692914D01*
X113059524Y-127692914D02*
X112964286Y-127740533D01*
X114392857Y-127788152D02*
X114392857Y-128454819D01*
X114154762Y-127407200D02*
X113916667Y-128121485D01*
X113916667Y-128121485D02*
X114535714Y-128121485D01*
X102011905Y-128407200D02*
X102154762Y-128454819D01*
X102154762Y-128454819D02*
X102392857Y-128454819D01*
X102392857Y-128454819D02*
X102488095Y-128407200D01*
X102488095Y-128407200D02*
X102535714Y-128359580D01*
X102535714Y-128359580D02*
X102583333Y-128264342D01*
X102583333Y-128264342D02*
X102583333Y-128169104D01*
X102583333Y-128169104D02*
X102535714Y-128073866D01*
X102535714Y-128073866D02*
X102488095Y-128026247D01*
X102488095Y-128026247D02*
X102392857Y-127978628D01*
X102392857Y-127978628D02*
X102202381Y-127931009D01*
X102202381Y-127931009D02*
X102107143Y-127883390D01*
X102107143Y-127883390D02*
X102059524Y-127835771D01*
X102059524Y-127835771D02*
X102011905Y-127740533D01*
X102011905Y-127740533D02*
X102011905Y-127645295D01*
X102011905Y-127645295D02*
X102059524Y-127550057D01*
X102059524Y-127550057D02*
X102107143Y-127502438D01*
X102107143Y-127502438D02*
X102202381Y-127454819D01*
X102202381Y-127454819D02*
X102440476Y-127454819D01*
X102440476Y-127454819D02*
X102583333Y-127502438D01*
X103535714Y-128454819D02*
X102964286Y-128454819D01*
X103250000Y-128454819D02*
X103250000Y-127454819D01*
X103250000Y-127454819D02*
X103154762Y-127597676D01*
X103154762Y-127597676D02*
X103059524Y-127692914D01*
X103059524Y-127692914D02*
X102964286Y-127740533D01*
X103869048Y-127454819D02*
X104488095Y-127454819D01*
X104488095Y-127454819D02*
X104154762Y-127835771D01*
X104154762Y-127835771D02*
X104297619Y-127835771D01*
X104297619Y-127835771D02*
X104392857Y-127883390D01*
X104392857Y-127883390D02*
X104440476Y-127931009D01*
X104440476Y-127931009D02*
X104488095Y-128026247D01*
X104488095Y-128026247D02*
X104488095Y-128264342D01*
X104488095Y-128264342D02*
X104440476Y-128359580D01*
X104440476Y-128359580D02*
X104392857Y-128407200D01*
X104392857Y-128407200D02*
X104297619Y-128454819D01*
X104297619Y-128454819D02*
X104011905Y-128454819D01*
X104011905Y-128454819D02*
X103916667Y-128407200D01*
X103916667Y-128407200D02*
X103869048Y-128359580D01*
X132011905Y-118407200D02*
X132154762Y-118454819D01*
X132154762Y-118454819D02*
X132392857Y-118454819D01*
X132392857Y-118454819D02*
X132488095Y-118407200D01*
X132488095Y-118407200D02*
X132535714Y-118359580D01*
X132535714Y-118359580D02*
X132583333Y-118264342D01*
X132583333Y-118264342D02*
X132583333Y-118169104D01*
X132583333Y-118169104D02*
X132535714Y-118073866D01*
X132535714Y-118073866D02*
X132488095Y-118026247D01*
X132488095Y-118026247D02*
X132392857Y-117978628D01*
X132392857Y-117978628D02*
X132202381Y-117931009D01*
X132202381Y-117931009D02*
X132107143Y-117883390D01*
X132107143Y-117883390D02*
X132059524Y-117835771D01*
X132059524Y-117835771D02*
X132011905Y-117740533D01*
X132011905Y-117740533D02*
X132011905Y-117645295D01*
X132011905Y-117645295D02*
X132059524Y-117550057D01*
X132059524Y-117550057D02*
X132107143Y-117502438D01*
X132107143Y-117502438D02*
X132202381Y-117454819D01*
X132202381Y-117454819D02*
X132440476Y-117454819D01*
X132440476Y-117454819D02*
X132583333Y-117502438D01*
X133535714Y-118454819D02*
X132964286Y-118454819D01*
X133250000Y-118454819D02*
X133250000Y-117454819D01*
X133250000Y-117454819D02*
X133154762Y-117597676D01*
X133154762Y-117597676D02*
X133059524Y-117692914D01*
X133059524Y-117692914D02*
X132964286Y-117740533D01*
X133916667Y-117550057D02*
X133964286Y-117502438D01*
X133964286Y-117502438D02*
X134059524Y-117454819D01*
X134059524Y-117454819D02*
X134297619Y-117454819D01*
X134297619Y-117454819D02*
X134392857Y-117502438D01*
X134392857Y-117502438D02*
X134440476Y-117550057D01*
X134440476Y-117550057D02*
X134488095Y-117645295D01*
X134488095Y-117645295D02*
X134488095Y-117740533D01*
X134488095Y-117740533D02*
X134440476Y-117883390D01*
X134440476Y-117883390D02*
X133869048Y-118454819D01*
X133869048Y-118454819D02*
X134488095Y-118454819D01*
X122011905Y-118407200D02*
X122154762Y-118454819D01*
X122154762Y-118454819D02*
X122392857Y-118454819D01*
X122392857Y-118454819D02*
X122488095Y-118407200D01*
X122488095Y-118407200D02*
X122535714Y-118359580D01*
X122535714Y-118359580D02*
X122583333Y-118264342D01*
X122583333Y-118264342D02*
X122583333Y-118169104D01*
X122583333Y-118169104D02*
X122535714Y-118073866D01*
X122535714Y-118073866D02*
X122488095Y-118026247D01*
X122488095Y-118026247D02*
X122392857Y-117978628D01*
X122392857Y-117978628D02*
X122202381Y-117931009D01*
X122202381Y-117931009D02*
X122107143Y-117883390D01*
X122107143Y-117883390D02*
X122059524Y-117835771D01*
X122059524Y-117835771D02*
X122011905Y-117740533D01*
X122011905Y-117740533D02*
X122011905Y-117645295D01*
X122011905Y-117645295D02*
X122059524Y-117550057D01*
X122059524Y-117550057D02*
X122107143Y-117502438D01*
X122107143Y-117502438D02*
X122202381Y-117454819D01*
X122202381Y-117454819D02*
X122440476Y-117454819D01*
X122440476Y-117454819D02*
X122583333Y-117502438D01*
X123535714Y-118454819D02*
X122964286Y-118454819D01*
X123250000Y-118454819D02*
X123250000Y-117454819D01*
X123250000Y-117454819D02*
X123154762Y-117597676D01*
X123154762Y-117597676D02*
X123059524Y-117692914D01*
X123059524Y-117692914D02*
X122964286Y-117740533D01*
X124488095Y-118454819D02*
X123916667Y-118454819D01*
X124202381Y-118454819D02*
X124202381Y-117454819D01*
X124202381Y-117454819D02*
X124107143Y-117597676D01*
X124107143Y-117597676D02*
X124011905Y-117692914D01*
X124011905Y-117692914D02*
X123916667Y-117740533D01*
X102488095Y-118407200D02*
X102630952Y-118454819D01*
X102630952Y-118454819D02*
X102869047Y-118454819D01*
X102869047Y-118454819D02*
X102964285Y-118407200D01*
X102964285Y-118407200D02*
X103011904Y-118359580D01*
X103011904Y-118359580D02*
X103059523Y-118264342D01*
X103059523Y-118264342D02*
X103059523Y-118169104D01*
X103059523Y-118169104D02*
X103011904Y-118073866D01*
X103011904Y-118073866D02*
X102964285Y-118026247D01*
X102964285Y-118026247D02*
X102869047Y-117978628D01*
X102869047Y-117978628D02*
X102678571Y-117931009D01*
X102678571Y-117931009D02*
X102583333Y-117883390D01*
X102583333Y-117883390D02*
X102535714Y-117835771D01*
X102535714Y-117835771D02*
X102488095Y-117740533D01*
X102488095Y-117740533D02*
X102488095Y-117645295D01*
X102488095Y-117645295D02*
X102535714Y-117550057D01*
X102535714Y-117550057D02*
X102583333Y-117502438D01*
X102583333Y-117502438D02*
X102678571Y-117454819D01*
X102678571Y-117454819D02*
X102916666Y-117454819D01*
X102916666Y-117454819D02*
X103059523Y-117502438D01*
X103535714Y-118454819D02*
X103726190Y-118454819D01*
X103726190Y-118454819D02*
X103821428Y-118407200D01*
X103821428Y-118407200D02*
X103869047Y-118359580D01*
X103869047Y-118359580D02*
X103964285Y-118216723D01*
X103964285Y-118216723D02*
X104011904Y-118026247D01*
X104011904Y-118026247D02*
X104011904Y-117645295D01*
X104011904Y-117645295D02*
X103964285Y-117550057D01*
X103964285Y-117550057D02*
X103916666Y-117502438D01*
X103916666Y-117502438D02*
X103821428Y-117454819D01*
X103821428Y-117454819D02*
X103630952Y-117454819D01*
X103630952Y-117454819D02*
X103535714Y-117502438D01*
X103535714Y-117502438D02*
X103488095Y-117550057D01*
X103488095Y-117550057D02*
X103440476Y-117645295D01*
X103440476Y-117645295D02*
X103440476Y-117883390D01*
X103440476Y-117883390D02*
X103488095Y-117978628D01*
X103488095Y-117978628D02*
X103535714Y-118026247D01*
X103535714Y-118026247D02*
X103630952Y-118073866D01*
X103630952Y-118073866D02*
X103821428Y-118073866D01*
X103821428Y-118073866D02*
X103916666Y-118026247D01*
X103916666Y-118026247D02*
X103964285Y-117978628D01*
X103964285Y-117978628D02*
X104011904Y-117883390D01*
X132488095Y-108407200D02*
X132630952Y-108454819D01*
X132630952Y-108454819D02*
X132869047Y-108454819D01*
X132869047Y-108454819D02*
X132964285Y-108407200D01*
X132964285Y-108407200D02*
X133011904Y-108359580D01*
X133011904Y-108359580D02*
X133059523Y-108264342D01*
X133059523Y-108264342D02*
X133059523Y-108169104D01*
X133059523Y-108169104D02*
X133011904Y-108073866D01*
X133011904Y-108073866D02*
X132964285Y-108026247D01*
X132964285Y-108026247D02*
X132869047Y-107978628D01*
X132869047Y-107978628D02*
X132678571Y-107931009D01*
X132678571Y-107931009D02*
X132583333Y-107883390D01*
X132583333Y-107883390D02*
X132535714Y-107835771D01*
X132535714Y-107835771D02*
X132488095Y-107740533D01*
X132488095Y-107740533D02*
X132488095Y-107645295D01*
X132488095Y-107645295D02*
X132535714Y-107550057D01*
X132535714Y-107550057D02*
X132583333Y-107502438D01*
X132583333Y-107502438D02*
X132678571Y-107454819D01*
X132678571Y-107454819D02*
X132916666Y-107454819D01*
X132916666Y-107454819D02*
X133059523Y-107502438D01*
X133630952Y-107883390D02*
X133535714Y-107835771D01*
X133535714Y-107835771D02*
X133488095Y-107788152D01*
X133488095Y-107788152D02*
X133440476Y-107692914D01*
X133440476Y-107692914D02*
X133440476Y-107645295D01*
X133440476Y-107645295D02*
X133488095Y-107550057D01*
X133488095Y-107550057D02*
X133535714Y-107502438D01*
X133535714Y-107502438D02*
X133630952Y-107454819D01*
X133630952Y-107454819D02*
X133821428Y-107454819D01*
X133821428Y-107454819D02*
X133916666Y-107502438D01*
X133916666Y-107502438D02*
X133964285Y-107550057D01*
X133964285Y-107550057D02*
X134011904Y-107645295D01*
X134011904Y-107645295D02*
X134011904Y-107692914D01*
X134011904Y-107692914D02*
X133964285Y-107788152D01*
X133964285Y-107788152D02*
X133916666Y-107835771D01*
X133916666Y-107835771D02*
X133821428Y-107883390D01*
X133821428Y-107883390D02*
X133630952Y-107883390D01*
X133630952Y-107883390D02*
X133535714Y-107931009D01*
X133535714Y-107931009D02*
X133488095Y-107978628D01*
X133488095Y-107978628D02*
X133440476Y-108073866D01*
X133440476Y-108073866D02*
X133440476Y-108264342D01*
X133440476Y-108264342D02*
X133488095Y-108359580D01*
X133488095Y-108359580D02*
X133535714Y-108407200D01*
X133535714Y-108407200D02*
X133630952Y-108454819D01*
X133630952Y-108454819D02*
X133821428Y-108454819D01*
X133821428Y-108454819D02*
X133916666Y-108407200D01*
X133916666Y-108407200D02*
X133964285Y-108359580D01*
X133964285Y-108359580D02*
X134011904Y-108264342D01*
X134011904Y-108264342D02*
X134011904Y-108073866D01*
X134011904Y-108073866D02*
X133964285Y-107978628D01*
X133964285Y-107978628D02*
X133916666Y-107931009D01*
X133916666Y-107931009D02*
X133821428Y-107883390D01*
X122488095Y-108407200D02*
X122630952Y-108454819D01*
X122630952Y-108454819D02*
X122869047Y-108454819D01*
X122869047Y-108454819D02*
X122964285Y-108407200D01*
X122964285Y-108407200D02*
X123011904Y-108359580D01*
X123011904Y-108359580D02*
X123059523Y-108264342D01*
X123059523Y-108264342D02*
X123059523Y-108169104D01*
X123059523Y-108169104D02*
X123011904Y-108073866D01*
X123011904Y-108073866D02*
X122964285Y-108026247D01*
X122964285Y-108026247D02*
X122869047Y-107978628D01*
X122869047Y-107978628D02*
X122678571Y-107931009D01*
X122678571Y-107931009D02*
X122583333Y-107883390D01*
X122583333Y-107883390D02*
X122535714Y-107835771D01*
X122535714Y-107835771D02*
X122488095Y-107740533D01*
X122488095Y-107740533D02*
X122488095Y-107645295D01*
X122488095Y-107645295D02*
X122535714Y-107550057D01*
X122535714Y-107550057D02*
X122583333Y-107502438D01*
X122583333Y-107502438D02*
X122678571Y-107454819D01*
X122678571Y-107454819D02*
X122916666Y-107454819D01*
X122916666Y-107454819D02*
X123059523Y-107502438D01*
X123392857Y-107454819D02*
X124059523Y-107454819D01*
X124059523Y-107454819D02*
X123630952Y-108454819D01*
X132488095Y-98407200D02*
X132630952Y-98454819D01*
X132630952Y-98454819D02*
X132869047Y-98454819D01*
X132869047Y-98454819D02*
X132964285Y-98407200D01*
X132964285Y-98407200D02*
X133011904Y-98359580D01*
X133011904Y-98359580D02*
X133059523Y-98264342D01*
X133059523Y-98264342D02*
X133059523Y-98169104D01*
X133059523Y-98169104D02*
X133011904Y-98073866D01*
X133011904Y-98073866D02*
X132964285Y-98026247D01*
X132964285Y-98026247D02*
X132869047Y-97978628D01*
X132869047Y-97978628D02*
X132678571Y-97931009D01*
X132678571Y-97931009D02*
X132583333Y-97883390D01*
X132583333Y-97883390D02*
X132535714Y-97835771D01*
X132535714Y-97835771D02*
X132488095Y-97740533D01*
X132488095Y-97740533D02*
X132488095Y-97645295D01*
X132488095Y-97645295D02*
X132535714Y-97550057D01*
X132535714Y-97550057D02*
X132583333Y-97502438D01*
X132583333Y-97502438D02*
X132678571Y-97454819D01*
X132678571Y-97454819D02*
X132916666Y-97454819D01*
X132916666Y-97454819D02*
X133059523Y-97502438D01*
X133916666Y-97788152D02*
X133916666Y-98454819D01*
X133678571Y-97407200D02*
X133440476Y-98121485D01*
X133440476Y-98121485D02*
X134059523Y-98121485D01*
X122488095Y-98407200D02*
X122630952Y-98454819D01*
X122630952Y-98454819D02*
X122869047Y-98454819D01*
X122869047Y-98454819D02*
X122964285Y-98407200D01*
X122964285Y-98407200D02*
X123011904Y-98359580D01*
X123011904Y-98359580D02*
X123059523Y-98264342D01*
X123059523Y-98264342D02*
X123059523Y-98169104D01*
X123059523Y-98169104D02*
X123011904Y-98073866D01*
X123011904Y-98073866D02*
X122964285Y-98026247D01*
X122964285Y-98026247D02*
X122869047Y-97978628D01*
X122869047Y-97978628D02*
X122678571Y-97931009D01*
X122678571Y-97931009D02*
X122583333Y-97883390D01*
X122583333Y-97883390D02*
X122535714Y-97835771D01*
X122535714Y-97835771D02*
X122488095Y-97740533D01*
X122488095Y-97740533D02*
X122488095Y-97645295D01*
X122488095Y-97645295D02*
X122535714Y-97550057D01*
X122535714Y-97550057D02*
X122583333Y-97502438D01*
X122583333Y-97502438D02*
X122678571Y-97454819D01*
X122678571Y-97454819D02*
X122916666Y-97454819D01*
X122916666Y-97454819D02*
X123059523Y-97502438D01*
X123392857Y-97454819D02*
X124011904Y-97454819D01*
X124011904Y-97454819D02*
X123678571Y-97835771D01*
X123678571Y-97835771D02*
X123821428Y-97835771D01*
X123821428Y-97835771D02*
X123916666Y-97883390D01*
X123916666Y-97883390D02*
X123964285Y-97931009D01*
X123964285Y-97931009D02*
X124011904Y-98026247D01*
X124011904Y-98026247D02*
X124011904Y-98264342D01*
X124011904Y-98264342D02*
X123964285Y-98359580D01*
X123964285Y-98359580D02*
X123916666Y-98407200D01*
X123916666Y-98407200D02*
X123821428Y-98454819D01*
X123821428Y-98454819D02*
X123535714Y-98454819D01*
X123535714Y-98454819D02*
X123440476Y-98407200D01*
X123440476Y-98407200D02*
X123392857Y-98359580D01*
X112488095Y-98407200D02*
X112630952Y-98454819D01*
X112630952Y-98454819D02*
X112869047Y-98454819D01*
X112869047Y-98454819D02*
X112964285Y-98407200D01*
X112964285Y-98407200D02*
X113011904Y-98359580D01*
X113011904Y-98359580D02*
X113059523Y-98264342D01*
X113059523Y-98264342D02*
X113059523Y-98169104D01*
X113059523Y-98169104D02*
X113011904Y-98073866D01*
X113011904Y-98073866D02*
X112964285Y-98026247D01*
X112964285Y-98026247D02*
X112869047Y-97978628D01*
X112869047Y-97978628D02*
X112678571Y-97931009D01*
X112678571Y-97931009D02*
X112583333Y-97883390D01*
X112583333Y-97883390D02*
X112535714Y-97835771D01*
X112535714Y-97835771D02*
X112488095Y-97740533D01*
X112488095Y-97740533D02*
X112488095Y-97645295D01*
X112488095Y-97645295D02*
X112535714Y-97550057D01*
X112535714Y-97550057D02*
X112583333Y-97502438D01*
X112583333Y-97502438D02*
X112678571Y-97454819D01*
X112678571Y-97454819D02*
X112916666Y-97454819D01*
X112916666Y-97454819D02*
X113059523Y-97502438D01*
X113440476Y-97550057D02*
X113488095Y-97502438D01*
X113488095Y-97502438D02*
X113583333Y-97454819D01*
X113583333Y-97454819D02*
X113821428Y-97454819D01*
X113821428Y-97454819D02*
X113916666Y-97502438D01*
X113916666Y-97502438D02*
X113964285Y-97550057D01*
X113964285Y-97550057D02*
X114011904Y-97645295D01*
X114011904Y-97645295D02*
X114011904Y-97740533D01*
X114011904Y-97740533D02*
X113964285Y-97883390D01*
X113964285Y-97883390D02*
X113392857Y-98454819D01*
X113392857Y-98454819D02*
X114011904Y-98454819D01*
X102488095Y-98407200D02*
X102630952Y-98454819D01*
X102630952Y-98454819D02*
X102869047Y-98454819D01*
X102869047Y-98454819D02*
X102964285Y-98407200D01*
X102964285Y-98407200D02*
X103011904Y-98359580D01*
X103011904Y-98359580D02*
X103059523Y-98264342D01*
X103059523Y-98264342D02*
X103059523Y-98169104D01*
X103059523Y-98169104D02*
X103011904Y-98073866D01*
X103011904Y-98073866D02*
X102964285Y-98026247D01*
X102964285Y-98026247D02*
X102869047Y-97978628D01*
X102869047Y-97978628D02*
X102678571Y-97931009D01*
X102678571Y-97931009D02*
X102583333Y-97883390D01*
X102583333Y-97883390D02*
X102535714Y-97835771D01*
X102535714Y-97835771D02*
X102488095Y-97740533D01*
X102488095Y-97740533D02*
X102488095Y-97645295D01*
X102488095Y-97645295D02*
X102535714Y-97550057D01*
X102535714Y-97550057D02*
X102583333Y-97502438D01*
X102583333Y-97502438D02*
X102678571Y-97454819D01*
X102678571Y-97454819D02*
X102916666Y-97454819D01*
X102916666Y-97454819D02*
X103059523Y-97502438D01*
X104011904Y-98454819D02*
X103440476Y-98454819D01*
X103726190Y-98454819D02*
X103726190Y-97454819D01*
X103726190Y-97454819D02*
X103630952Y-97597676D01*
X103630952Y-97597676D02*
X103535714Y-97692914D01*
X103535714Y-97692914D02*
X103440476Y-97740533D01*
%TO.C,J1*%
D12*
X93880000Y-127480000D02*
X92500000Y-127480000D01*
X93880000Y-126100000D02*
X93880000Y-127480000D01*
X93880000Y-124830000D02*
X93880000Y-106940000D01*
X93880000Y-124830000D02*
X91120000Y-124830000D01*
X93880000Y-106940000D02*
X91120000Y-106940000D01*
X91120000Y-124830000D02*
X91120000Y-106940000D01*
%TO.C,S10*%
X116750000Y-123000000D02*
X116750000Y-121500000D01*
X115500000Y-119000000D02*
X111000000Y-119000000D01*
X111000000Y-125500000D02*
X115500000Y-125500000D01*
X109750000Y-121500000D02*
X109750000Y-123000000D01*
%TO.C,S6*%
X116750000Y-113000000D02*
X116750000Y-111500000D01*
X115500000Y-109000000D02*
X111000000Y-109000000D01*
X111000000Y-115500000D02*
X115500000Y-115500000D01*
X109750000Y-111500000D02*
X109750000Y-113000000D01*
%TO.C,S5*%
X106750000Y-113000000D02*
X106750000Y-111500000D01*
X105500000Y-109000000D02*
X101000000Y-109000000D01*
X101000000Y-115500000D02*
X105500000Y-115500000D01*
X99750000Y-111500000D02*
X99750000Y-113000000D01*
%TO.C,S16*%
X129750000Y-131500000D02*
X129750000Y-133000000D01*
X131000000Y-135500000D02*
X135500000Y-135500000D01*
X135500000Y-129000000D02*
X131000000Y-129000000D01*
X136750000Y-133000000D02*
X136750000Y-131500000D01*
%TO.C,S15*%
X119750000Y-131500000D02*
X119750000Y-133000000D01*
X121000000Y-135500000D02*
X125500000Y-135500000D01*
X125500000Y-129000000D02*
X121000000Y-129000000D01*
X126750000Y-133000000D02*
X126750000Y-131500000D01*
%TO.C,S14*%
X109750000Y-131500000D02*
X109750000Y-133000000D01*
X111000000Y-135500000D02*
X115500000Y-135500000D01*
X115500000Y-129000000D02*
X111000000Y-129000000D01*
X116750000Y-133000000D02*
X116750000Y-131500000D01*
%TO.C,S13*%
X99750000Y-131500000D02*
X99750000Y-133000000D01*
X101000000Y-135500000D02*
X105500000Y-135500000D01*
X105500000Y-129000000D02*
X101000000Y-129000000D01*
X106750000Y-133000000D02*
X106750000Y-131500000D01*
%TO.C,S12*%
X129750000Y-121500000D02*
X129750000Y-123000000D01*
X131000000Y-125500000D02*
X135500000Y-125500000D01*
X135500000Y-119000000D02*
X131000000Y-119000000D01*
X136750000Y-123000000D02*
X136750000Y-121500000D01*
%TO.C,S11*%
X119750000Y-121500000D02*
X119750000Y-123000000D01*
X121000000Y-125500000D02*
X125500000Y-125500000D01*
X125500000Y-119000000D02*
X121000000Y-119000000D01*
X126750000Y-123000000D02*
X126750000Y-121500000D01*
%TO.C,S9*%
X99750000Y-121500000D02*
X99750000Y-123000000D01*
X101000000Y-125500000D02*
X105500000Y-125500000D01*
X105500000Y-119000000D02*
X101000000Y-119000000D01*
X106750000Y-123000000D02*
X106750000Y-121500000D01*
%TO.C,S8*%
X129750000Y-111500000D02*
X129750000Y-113000000D01*
X131000000Y-115500000D02*
X135500000Y-115500000D01*
X135500000Y-109000000D02*
X131000000Y-109000000D01*
X136750000Y-113000000D02*
X136750000Y-111500000D01*
%TO.C,S7*%
X119750000Y-111500000D02*
X119750000Y-113000000D01*
X121000000Y-115500000D02*
X125500000Y-115500000D01*
X125500000Y-109000000D02*
X121000000Y-109000000D01*
X126750000Y-113000000D02*
X126750000Y-111500000D01*
%TO.C,S4*%
X129750000Y-101500000D02*
X129750000Y-103000000D01*
X131000000Y-105500000D02*
X135500000Y-105500000D01*
X135500000Y-99000000D02*
X131000000Y-99000000D01*
X136750000Y-103000000D02*
X136750000Y-101500000D01*
%TO.C,S3*%
X119750000Y-101500000D02*
X119750000Y-103000000D01*
X121000000Y-105500000D02*
X125500000Y-105500000D01*
X125500000Y-99000000D02*
X121000000Y-99000000D01*
X126750000Y-103000000D02*
X126750000Y-101500000D01*
%TO.C,S2*%
X109750000Y-101500000D02*
X109750000Y-103000000D01*
X111000000Y-105500000D02*
X115500000Y-105500000D01*
X115500000Y-99000000D02*
X111000000Y-99000000D01*
X116750000Y-103000000D02*
X116750000Y-101500000D01*
%TO.C,S1*%
X99750000Y-101500000D02*
X99750000Y-103000000D01*
X101000000Y-105500000D02*
X105500000Y-105500000D01*
X105500000Y-99000000D02*
X101000000Y-99000000D01*
X106750000Y-103000000D02*
X106750000Y-101500000D01*
%TD*%
M02*
