%TF.GenerationSoftware,KiCad,Pcbnew,10.0.3*%
%TF.CreationDate,2026-05-26T09:39:39+05:30*%
%TF.ProjectId,Keypad_4x4,4b657970-6164-45f3-9478-342e6b696361,rev?*%
%TF.SameCoordinates,Original*%
%TF.FileFunction,Copper,L1,Top*%
%TF.FilePolarity,Positive*%
%FSLAX46Y46*%
G04 Gerber Fmt 4.6, Leading zero omitted, Abs format (unit mm)*
G04 Created by KiCad (PCBNEW 10.0.3) date 2026-05-26 09:39:39*
%MOMM*%
%LPD*%
G01*
G04 APERTURE LIST*
%TA.AperFunction,ComponentPad*%
%ADD10R,1.700000X1.700000*%
%TD*%
%TA.AperFunction,ComponentPad*%
%ADD11C,1.700000*%
%TD*%
%TA.AperFunction,ComponentPad*%
%ADD12C,2.000000*%
%TD*%
%TA.AperFunction,Conductor*%
%ADD13C,0.200000*%
%TD*%
G04 APERTURE END LIST*
D10*
%TO.P,J1,1,Pin_1_1*%
%TO.N,/ROW4*%
X92500000Y-126100000D03*
D11*
%TO.P,J1,2,Pin_2_2*%
%TO.N,/ROW3*%
X92500000Y-123560000D03*
%TO.P,J1,3,Pin_3_3*%
%TO.N,/ROW2*%
X92500000Y-121020000D03*
%TO.P,J1,4,Pin_4_4*%
%TO.N,/ROW1*%
X92500000Y-118480000D03*
%TO.P,J1,5,Pin_5_5*%
%TO.N,/COL1*%
X92500000Y-115940000D03*
%TO.P,J1,6,Pin_6_6*%
%TO.N,/COL2*%
X92500000Y-113400000D03*
%TO.P,J1,7,Pin_7_7*%
%TO.N,/COL3*%
X92500000Y-110860000D03*
%TO.P,J1,8,Pin_8_8*%
%TO.N,/COL4*%
X92500000Y-108320000D03*
%TD*%
D12*
%TO.P,S10,2,2_2*%
%TO.N,/COL2*%
X116500000Y-124500000D03*
X110000000Y-124500000D03*
%TO.P,S10,1,1_1*%
%TO.N,/ROW3*%
X116500000Y-120000000D03*
X110000000Y-120000000D03*
%TD*%
%TO.P,S6,2,2_2*%
%TO.N,/COL2*%
X116500000Y-114500000D03*
X110000000Y-114500000D03*
%TO.P,S6,1,1_1*%
%TO.N,/ROW2*%
X116500000Y-110000000D03*
X110000000Y-110000000D03*
%TD*%
%TO.P,S5,2,2_2*%
%TO.N,/COL1*%
X106500000Y-114500000D03*
X100000000Y-114500000D03*
%TO.P,S5,1,1_1*%
%TO.N,/ROW2*%
X106500000Y-110000000D03*
X100000000Y-110000000D03*
%TD*%
%TO.P,S16,1,1_1*%
%TO.N,/ROW4*%
X130000000Y-130000000D03*
X136500000Y-130000000D03*
%TO.P,S16,2,2_2*%
%TO.N,/COL4*%
X130000000Y-134500000D03*
X136500000Y-134500000D03*
%TD*%
%TO.P,S15,1,1_1*%
%TO.N,/ROW4*%
X120000000Y-130000000D03*
X126500000Y-130000000D03*
%TO.P,S15,2,2_2*%
%TO.N,/COL3*%
X120000000Y-134500000D03*
X126500000Y-134500000D03*
%TD*%
%TO.P,S14,1,1_1*%
%TO.N,/ROW4*%
X110000000Y-130000000D03*
X116500000Y-130000000D03*
%TO.P,S14,2,2_2*%
%TO.N,/COL2*%
X110000000Y-134500000D03*
X116500000Y-134500000D03*
%TD*%
%TO.P,S13,1,1_1*%
%TO.N,/ROW4*%
X100000000Y-130000000D03*
X106500000Y-130000000D03*
%TO.P,S13,2,2_2*%
%TO.N,/COL1*%
X100000000Y-134500000D03*
X106500000Y-134500000D03*
%TD*%
%TO.P,S12,1,1_1*%
%TO.N,/ROW3*%
X130000000Y-120000000D03*
X136500000Y-120000000D03*
%TO.P,S12,2,2_2*%
%TO.N,/COL4*%
X130000000Y-124500000D03*
X136500000Y-124500000D03*
%TD*%
%TO.P,S11,1,1_1*%
%TO.N,/ROW3*%
X120000000Y-120000000D03*
X126500000Y-120000000D03*
%TO.P,S11,2,2_2*%
%TO.N,/COL3*%
X120000000Y-124500000D03*
X126500000Y-124500000D03*
%TD*%
%TO.P,S9,1,1_1*%
%TO.N,/ROW3*%
X100000000Y-120000000D03*
X106500000Y-120000000D03*
%TO.P,S9,2,2_2*%
%TO.N,/COL1*%
X100000000Y-124500000D03*
X106500000Y-124500000D03*
%TD*%
%TO.P,S8,1,1_1*%
%TO.N,/ROW2*%
X130000000Y-110000000D03*
X136500000Y-110000000D03*
%TO.P,S8,2,2_2*%
%TO.N,/COL4*%
X130000000Y-114500000D03*
X136500000Y-114500000D03*
%TD*%
%TO.P,S7,1,1_1*%
%TO.N,/ROW2*%
X120000000Y-110000000D03*
X126500000Y-110000000D03*
%TO.P,S7,2,2_2*%
%TO.N,/COL3*%
X120000000Y-114500000D03*
X126500000Y-114500000D03*
%TD*%
%TO.P,S4,1,1_1*%
%TO.N,/ROW1*%
X130000000Y-100000000D03*
X136500000Y-100000000D03*
%TO.P,S4,2,2_2*%
%TO.N,/COL4*%
X130000000Y-104500000D03*
X136500000Y-104500000D03*
%TD*%
%TO.P,S3,1,1_1*%
%TO.N,/ROW1*%
X120000000Y-100000000D03*
X126500000Y-100000000D03*
%TO.P,S3,2,2_2*%
%TO.N,/COL3*%
X120000000Y-104500000D03*
X126500000Y-104500000D03*
%TD*%
%TO.P,S2,1,1_1*%
%TO.N,/ROW1*%
X110000000Y-100000000D03*
X116500000Y-100000000D03*
%TO.P,S2,2,2_2*%
%TO.N,/COL2*%
X110000000Y-104500000D03*
X116500000Y-104500000D03*
%TD*%
%TO.P,S1,1,1_1*%
%TO.N,/ROW1*%
X100000000Y-100000000D03*
X106500000Y-100000000D03*
%TO.P,S1,2,2_2*%
%TO.N,/COL1*%
X100000000Y-104500000D03*
X106500000Y-104500000D03*
%TD*%
%TO.N,/COL2*%
D13*
X116500000Y-104500000D02*
X110000000Y-104500000D01*
X116500000Y-134500000D02*
X110000000Y-134500000D01*
X110000000Y-114500000D02*
X116500000Y-114500000D01*
X110000000Y-124500000D02*
X116500000Y-124500000D01*
X92709600Y-113190400D02*
X92500000Y-113400000D01*
X108690400Y-113190400D02*
X92709600Y-113190400D01*
X110000000Y-114500000D02*
X108690400Y-113190400D01*
%TO.N,/ROW4*%
X106500000Y-130000000D02*
X110000000Y-130000000D01*
X100000000Y-130000000D02*
X106500000Y-130000000D01*
X116500000Y-130000000D02*
X120000000Y-130000000D01*
X110000000Y-130000000D02*
X116500000Y-130000000D01*
X126500000Y-130000000D02*
X130000000Y-130000000D01*
X120000000Y-130000000D02*
X126500000Y-130000000D01*
X136500000Y-130000000D02*
X130000000Y-130000000D01*
X97551700Y-130000000D02*
X93651700Y-126100000D01*
X100000000Y-130000000D02*
X97551700Y-130000000D01*
X92500000Y-126100000D02*
X93651700Y-126100000D01*
%TO.N,/ROW3*%
X106500000Y-120000000D02*
X110000000Y-120000000D01*
X100000000Y-120000000D02*
X106500000Y-120000000D01*
X126500000Y-120000000D02*
X130000000Y-120000000D01*
X120000000Y-120000000D02*
X116500000Y-120000000D01*
X136500000Y-120000000D02*
X130000000Y-120000000D01*
X126500000Y-120000000D02*
X120000000Y-120000000D01*
X110000000Y-120000000D02*
X116500000Y-120000000D01*
X96440000Y-123560000D02*
X92500000Y-123560000D01*
X100000000Y-120000000D02*
X96440000Y-123560000D01*
%TO.N,/COL4*%
X136500000Y-104500000D02*
X130000000Y-104500000D01*
X136500000Y-114500000D02*
X130000000Y-114500000D01*
X136500000Y-124500000D02*
X130000000Y-124500000D01*
X136500000Y-134500000D02*
X130000000Y-134500000D01*
X126180000Y-108320000D02*
X92500000Y-108320000D01*
X130000000Y-104500000D02*
X126180000Y-108320000D01*
%TO.N,/ROW2*%
X126500000Y-110000000D02*
X130000000Y-110000000D01*
X120000000Y-110000000D02*
X116500000Y-110000000D01*
X136500000Y-110000000D02*
X130000000Y-110000000D01*
X126500000Y-110000000D02*
X120000000Y-110000000D01*
X100000000Y-110000000D02*
X106500000Y-110000000D01*
X106500000Y-110000000D02*
X110000000Y-110000000D01*
X110000000Y-110000000D02*
X116500000Y-110000000D01*
%TO.N,/COL1*%
X106500000Y-104500000D02*
X100000000Y-104500000D01*
X106500000Y-124500000D02*
X100000000Y-124500000D01*
X106500000Y-134500000D02*
X100000000Y-134500000D01*
X100000000Y-114500000D02*
X106500000Y-114500000D01*
X98560000Y-115940000D02*
X92500000Y-115940000D01*
X100000000Y-114500000D02*
X98560000Y-115940000D01*
%TO.N,/COL3*%
X126500000Y-104500000D02*
X120000000Y-104500000D01*
X126500000Y-114500000D02*
X120000000Y-114500000D01*
X126500000Y-124500000D02*
X120000000Y-124500000D01*
X126500000Y-134500000D02*
X120000000Y-134500000D01*
X94378700Y-112738700D02*
X92500000Y-110860000D01*
X118238700Y-112738700D02*
X94378700Y-112738700D01*
X120000000Y-114500000D02*
X118238700Y-112738700D01*
%TO.N,/ROW1*%
X106500000Y-100000000D02*
X110000000Y-100000000D01*
X100000000Y-100000000D02*
X106500000Y-100000000D01*
X116500000Y-100000000D02*
X120000000Y-100000000D01*
X110000000Y-100000000D02*
X116500000Y-100000000D01*
X126500000Y-100000000D02*
X130000000Y-100000000D01*
X120000000Y-100000000D02*
X126500000Y-100000000D01*
X136500000Y-100000000D02*
X130000000Y-100000000D01*
%TD*%
M02*
