M48
; DRILL file KiCad 10.0.3 date 2026-05-26T09:40:14
; FORMAT={-:-/ absolute / metric / decimal}
; #@! TF.CreationDate,2026-05-26T09:40:14+05:30
; #@! TF.GenerationSoftware,Kicad,Pcbnew,10.0.3
; #@! TF.FileFunction,Plated,1,2,PTH
FMAT,2
METRIC
; #@! TA.AperFunction,Plated,PTH,ComponentDrill
T1C1.000
; #@! TA.AperFunction,Plated,PTH,ComponentDrill
T2C1.100
%
G90
G05
T1
X92.5Y-108.32
X92.5Y-110.86
X92.5Y-113.4
X92.5Y-115.94
X92.5Y-118.48
X92.5Y-121.02
X92.5Y-123.56
X92.5Y-126.1
T2
X100.0Y-100.0
X100.0Y-104.5
X100.0Y-110.0
X100.0Y-114.5
X100.0Y-120.0
X100.0Y-124.5
X100.0Y-130.0
X100.0Y-134.5
X106.5Y-100.0
X106.5Y-104.5
X106.5Y-110.0
X106.5Y-114.5
X106.5Y-120.0
X106.5Y-124.5
X106.5Y-130.0
X106.5Y-134.5
X110.0Y-100.0
X110.0Y-104.5
X110.0Y-110.0
X110.0Y-114.5
X110.0Y-120.0
X110.0Y-124.5
X110.0Y-130.0
X110.0Y-134.5
X116.5Y-100.0
X116.5Y-104.5
X116.5Y-110.0
X116.5Y-114.5
X116.5Y-120.0
X116.5Y-124.5
X116.5Y-130.0
X116.5Y-134.5
X120.0Y-100.0
X120.0Y-104.5
X120.0Y-110.0
X120.0Y-114.5
X120.0Y-120.0
X120.0Y-124.5
X120.0Y-130.0
X120.0Y-134.5
X126.5Y-100.0
X126.5Y-104.5
X126.5Y-110.0
X126.5Y-114.5
X126.5Y-120.0
X126.5Y-124.5
X126.5Y-130.0
X126.5Y-134.5
X130.0Y-100.0
X130.0Y-104.5
X130.0Y-110.0
X130.0Y-114.5
X130.0Y-120.0
X130.0Y-124.5
X130.0Y-130.0
X130.0Y-134.5
X136.5Y-100.0
X136.5Y-104.5
X136.5Y-110.0
X136.5Y-114.5
X136.5Y-120.0
X136.5Y-124.5
X136.5Y-130.0
X136.5Y-134.5
M30
